# This file uses centimeters as units for non-parametric coordinates.

mtllib Base.mtl
g default
v 0.209168 0.000000 -0.000000
v 0.198930 0.000000 -0.064636
v -0.064636 0.000000 0.198930
v -0.000000 0.000000 0.209168
v 0.198930 0.000000 0.064636
v 0.064636 0.000000 0.198930
v 0.122946 0.000000 0.169220
v 0.169220 0.000000 0.122946
v -0.500000 0.000000 0.500000
v 0.500000 0.000000 0.500000
v 0.500000 0.000000 -0.500000
v -0.500000 0.000000 -0.500000
v -0.000000 0.000000 -0.209168
v 0.064636 0.000000 -0.198930
v 0.122946 0.000000 -0.169220
v 0.169220 0.000000 -0.122946
v -0.122946 0.000000 0.169220
v -0.169220 0.000000 0.122946
v -0.198930 0.000000 0.064636
v -0.209168 0.000000 -0.000000
v -0.198930 0.000000 -0.064636
v -0.064636 0.000000 -0.198930
v -0.169220 0.000000 -0.122946
v -0.122946 0.000000 -0.169220
v 0.159316 -0.054823 -0.000000
v 0.151518 -0.054823 -0.049231
v -0.049231 -0.054823 0.151518
v -0.000000 -0.054823 0.159316
v 0.151518 -0.054823 0.049231
v 0.049231 -0.054823 0.151518
v 0.093643 -0.054823 0.128889
v 0.128889 -0.054823 0.093643
v -0.000000 -0.054823 -0.159316
v 0.049231 -0.054823 -0.151518
v 0.093643 -0.054823 -0.128889
v 0.128889 -0.054823 -0.093643
v -0.093643 -0.054823 0.128889
v -0.128889 -0.054823 0.093643
v -0.151518 -0.054823 0.049231
v -0.159316 -0.054823 -0.000000
v -0.151518 -0.054823 -0.049231
v -0.049231 -0.054823 -0.151518
v -0.128889 -0.054823 -0.093643
v -0.093643 -0.054823 -0.128889
vt 0.000000 0.000000
vt 1.000000 0.000000
vt 1.000000 1.000000
vt 0.000000 1.000000
vt 0.500000 0.709168
vt 0.564636 0.698930
vt 0.622946 0.669220
vt 0.669220 0.622946
vt 0.698930 0.564636
vt 0.709167 0.500000
vt 0.698930 0.435364
vt 0.669220 0.377054
vt 0.622946 0.330780
vt 0.564636 0.301070
vt 0.500002 0.290773
vt 0.435364 0.301070
vt 0.377054 0.330780
vt 0.330780 0.377054
vt 0.301070 0.435364
vt 0.290832 0.500000
vt 0.301070 0.564636
vt 0.330780 0.622946
vt 0.377054 0.669220
vt 0.435364 0.698930
vt 0.000000 0.000000
vt 1.000000 0.000000
vt 1.000000 1.000000
vt 0.000000 1.000000
vt 0.000000 0.000000
vt 1.000000 0.000000
vt 1.000000 1.000000
vt 0.000000 1.000000
vt 0.000000 0.000000
vt 1.000000 0.000000
vt 1.000000 1.000000
vt 0.000000 1.000000
vt 0.000000 0.000000
vt 1.000000 0.000000
vt 1.000000 1.000000
vt 0.000000 1.000000
vt 0.000000 0.000000
vt 1.000000 0.000000
vt 1.000000 1.000000
vt 0.000000 1.000000
vt 0.000000 0.000000
vt 1.000000 0.000000
vt 1.000000 1.000000
vt 0.000000 1.000000
vt 0.000000 0.000000
vt 1.000000 0.000000
vt 1.000000 1.000000
vt 0.000000 1.000000
vt 0.000000 0.000000
vt 1.000000 0.000000
vt 1.000000 1.000000
vt 0.000000 1.000000
vt 0.000000 0.000000
vt 1.000000 0.000000
vt 1.000000 1.000000
vt 0.000000 1.000000
vt 0.000000 0.000000
vt 1.000000 0.000000
vt 1.000000 1.000000
vt 0.000000 1.000000
vt 0.000000 0.000000
vt 1.000000 0.000000
vt 1.000000 1.000000
vt 0.000000 1.000000
vt 0.000000 0.000000
vt 1.000000 0.000000
vt 1.000000 1.000000
vt 0.000000 1.000000
vt 0.000000 0.000000
vt 1.000000 0.000000
vt 1.000000 1.000000
vt 0.000000 1.000000
vt 0.000000 0.000000
vt 1.000000 0.000000
vt 1.000000 1.000000
vt 0.000000 1.000000
vt 0.000000 0.000000
vt 1.000000 0.000000
vt 1.000000 1.000000
vt 0.000000 1.000000
vt 0.000000 0.000000
vt 1.000000 0.000000
vt 1.000000 1.000000
vt 0.000000 1.000000
vt 0.000000 0.000000
vt 1.000000 0.000000
vt 1.000000 1.000000
vt 0.000000 1.000000
vt 0.000000 0.000000
vt 1.000000 0.000000
vt 1.000000 1.000000
vt 0.000000 1.000000
vt 0.000000 0.000000
vt 1.000000 0.000000
vt 1.000000 1.000000
vt 0.000000 1.000000
vt 0.000000 0.000000
vt 1.000000 0.000000
vt 1.000000 1.000000
vt 0.000000 1.000000
vn 0.000000 1.000000 0.000000
vn 0.000000 1.000000 0.000000
vn 0.000000 1.000000 0.000000
vn 0.000000 1.000000 0.000000
vn 0.000000 1.000000 0.000000
vn 0.000000 1.000000 0.000000
vn 0.000000 1.000000 0.000000
vn 0.000000 1.000000 0.000000
vn 0.000000 1.000000 0.000000
vn 0.000000 1.000000 0.000000
vn 0.000000 1.000000 0.000000
vn 0.000000 1.000000 0.000000
vn 0.000000 1.000000 0.000000
vn 0.000000 1.000000 0.000000
vn 0.000000 1.000000 0.000000
vn 0.000000 1.000000 0.000000
vn 0.000000 1.000000 0.000000
vn 0.000000 1.000000 0.000000
vn 0.000000 1.000000 0.000000
vn 0.000000 1.000000 0.000000
vn 0.000000 1.000000 0.000000
vn 0.000000 1.000000 0.000000
vn 0.000000 1.000000 0.000000
vn 0.000000 1.000000 0.000000
vn -0.734826 0.668196 0.116383
vn -0.734826 0.668196 0.116383
vn -0.734826 0.668196 0.116383
vn -0.734826 0.668196 0.116383
vn 0.116386 0.668196 -0.734826
vn 0.116386 0.668196 -0.734826
vn 0.116386 0.668196 -0.734826
vn 0.116386 0.668196 -0.734826
vn -0.734826 0.668196 -0.116385
vn -0.734826 0.668196 -0.116385
vn -0.734826 0.668196 -0.116385
vn -0.734826 0.668196 -0.116385
vn -0.116386 0.668196 -0.734826
vn -0.116386 0.668196 -0.734826
vn -0.116386 0.668196 -0.734826
vn -0.116386 0.668196 -0.734826
vn -0.337762 0.668196 -0.662896
vn -0.337762 0.668196 -0.662896
vn -0.337762 0.668196 -0.662896
vn -0.337762 0.668196 -0.662896
vn -0.662896 0.668196 -0.337762
vn -0.662896 0.668196 -0.337762
vn -0.662896 0.668196 -0.337762
vn -0.662896 0.668196 -0.337762
vn -0.526077 0.668195 -0.526078
vn -0.526077 0.668195 -0.526078
vn -0.526077 0.668195 -0.526078
vn -0.526077 0.668195 -0.526078
vn -0.116386 0.668196 0.734826
vn -0.116386 0.668196 0.734826
vn -0.116386 0.668196 0.734826
vn -0.116386 0.668196 0.734826
vn -0.337762 0.668196 0.662896
vn -0.337762 0.668196 0.662896
vn -0.337762 0.668196 0.662896
vn -0.337762 0.668196 0.662896
vn -0.526077 0.668196 0.526077
vn -0.526077 0.668196 0.526077
vn -0.526077 0.668196 0.526077
vn -0.526077 0.668196 0.526077
vn -0.662896 0.668196 0.337762
vn -0.662896 0.668196 0.337762
vn -0.662896 0.668196 0.337762
vn -0.662896 0.668196 0.337762
vn 0.337762 0.668196 -0.662896
vn 0.337762 0.668196 -0.662896
vn 0.337762 0.668196 -0.662896
vn 0.337762 0.668196 -0.662896
vn 0.526077 0.668195 -0.526078
vn 0.526077 0.668195 -0.526078
vn 0.526077 0.668195 -0.526077
vn 0.526077 0.668195 -0.526078
vn 0.662896 0.668196 -0.337762
vn 0.662896 0.668196 -0.337762
vn 0.662896 0.668196 -0.337762
vn 0.662896 0.668196 -0.337762
vn 0.734826 0.668196 -0.116385
vn 0.734826 0.668196 -0.116385
vn 0.734826 0.668196 -0.116385
vn 0.734826 0.668196 -0.116385
vn 0.734826 0.668196 0.116385
vn 0.734826 0.668196 0.116385
vn 0.734826 0.668196 0.116385
vn 0.734826 0.668196 0.116385
vn 0.116386 0.668196 0.734826
vn 0.116386 0.668196 0.734826
vn 0.116386 0.668196 0.734826
vn 0.116386 0.668196 0.734826
vn 0.662896 0.668196 0.337762
vn 0.662896 0.668196 0.337762
vn 0.662896 0.668196 0.337762
vn 0.662896 0.668196 0.337762
vn 0.337762 0.668196 0.662896
vn 0.337762 0.668196 0.662896
vn 0.337762 0.668196 0.662896
vn 0.337762 0.668196 0.662896
vn 0.526078 0.668195 0.526077
vn 0.526078 0.668195 0.526077
vn 0.526078 0.668195 0.526077
vn 0.526078 0.668195 0.526077
s 1
g polySurface1
usemtl initialShadingGroup
f 13/5/1 11/3/2 12/4/3
f 9/1/4 3/16/5 17/17/6
f 9/1/4 4/15/7 3/16/5
f 9/1/4 19/19/8 20/20/9
f 9/1/4 17/17/6 18/18/10
f 9/1/4 20/20/9 12/4/3
f 9/1/4 18/18/10 19/19/8
f 12/4/3 21/21/11 23/22/12
f 12/4/3 20/20/9 21/21/11
f 12/4/3 24/23/13 22/24/14
f 12/4/3 23/22/12 24/23/13
f 12/4/3 22/24/14 13/5/1
f 15/7/15 11/3/2 14/6/16
f 14/6/16 11/3/2 13/5/1
f 2/9/17 11/3/2 16/8/18
f 16/8/18 11/3/2 15/7/15
f 1/10/19 10/2/20 11/3/2
f 1/10/19 11/3/2 2/9/17
f 8/12/21 10/2/20 5/11/22
f 5/11/22 10/2/20 1/10/19
f 6/14/23 10/2/20 7/13/24
f 7/13/24 10/2/20 8/12/21
f 9/1/4 10/2/20 4/15/7
f 4/15/7 10/2/20 6/14/23
s off
f 1/25/25 2/26/26 26/27/27 25/28/28
f 3/29/29 4/30/30 28/31/31 27/32/32
f 5/33/33 1/34/34 25/35/35 29/36/36
f 4/37/37 6/38/38 30/39/39 28/40/40
f 6/41/41 7/42/42 31/43/43 30/44/44
f 8/45/45 5/46/46 29/47/47 32/48/48
f 7/49/49 8/50/50 32/51/51 31/52/52
f 14/53/53 13/54/54 33/55/55 34/56/56
f 15/57/57 14/58/58 34/59/59 35/60/60
f 16/61/61 15/62/62 35/63/63 36/64/64
f 2/65/65 16/66/66 36/67/67 26/68/68
f 17/69/69 3/70/70 27/71/71 37/72/72
f 18/73/73 17/74/74 37/75/75 38/76/76
f 19/77/77 18/78/78 38/79/79 39/80/80
f 20/81/81 19/82/82 39/83/83 40/84/84
f 21/85/85 20/86/86 40/87/87 41/88/88
f 13/89/89 22/90/90 42/91/91 33/92/92
f 23/93/93 21/94/94 41/95/95 43/96/96
f 22/97/97 24/98/98 44/99/99 42/100/100
f 24/101/101 23/102/102 43/103/103 44/104/104
